<?xml version="1.0" encoding="utf-8"?>
<!-- Generator: Adobe Illustrator 27.6.0, SVG Export Plug-In . SVG Version: 6.00 Build 0)  -->
<svg version="1.1" id="Layer_1" xmlns="http://www.w3.org/2000/svg" xmlns:xlink="http://www.w3.org/1999/xlink" x="0px" y="0px"
	 viewBox="0 0 508 155" style="enable-background:new 0 0 508 155;" xml:space="preserve">
<style type="text/css">
	.st0{fill:#F1F1F1;}
</style>
<path class="st0" d="M0,40.8c0-7.6,1.5-14.5,4.4-20.7c3-6.2,7.5-11,13.3-14.6C23.6,1.8,30.7,0,38.9,0c4,0,7.4,0.4,10.2,1.1
	c2.9,0.7,6.3,1.7,10.2,3l-0.6,21.2h-9l-3-14c-0.6-2.6-4.1-3.9-10.5-3.9c-6.5,0-11.6,2.6-15.4,7.8c-3.7,5.1-5.5,12.5-5.5,22
	c0,10.8,2.1,19.1,6.2,24.8c4.2,5.6,9.7,8.4,16.5,8.4c3.9,0,7.5-0.6,10.9-1.8c3.5-1.2,6.5-2.6,9-4.3l2.6,5.5c-2.5,2.6-6.2,4.9-11.1,7
	c-4.8,2-9.7,3-14.7,3c-7.6,0-14-1.7-19.2-5.1c-5.2-3.4-9.1-8-11.8-13.9C1.3,55,0,48.3,0,40.8z"/>
<path class="st0" d="M72.6,57.8c0-8.6,4.3-15,13-19c8.7-4.1,19.7-6.3,32.9-6.6v-3.9c0-4.3-0.5-7.7-1.4-10.2
	c-0.9-2.5-2.5-4.3-4.8-5.4c-2.2-1.2-5.4-1.8-9.5-1.8c-4.7,0-8.9,0.7-12.7,2.1c-3.7,1.3-7.4,2.9-11.1,4.8l-3.5-7.2
	c1.2-1,3.4-2.3,6.6-4c3.2-1.7,7-3.1,11.2-4.4c4.2-1.3,8.5-1.9,12.7-1.9c6.6,0,11.7,0.9,15.5,2.8c3.9,1.7,6.6,4.6,8.3,8.5
	c1.7,3.9,2.5,9.2,2.5,15.8v44.2h8.2v6.1c-1.8,0.5-4.2,0.9-7.1,1.4c-2.8,0.5-5.2,0.7-7.3,0.7c-2.6,0-4.3-0.4-5.3-1.2
	c-0.9-0.7-1.4-2.4-1.4-5.1V69c-2.8,2.8-6.2,5.3-10.2,7.6c-4,2.3-8.5,3.4-13.6,3.4c-6.6,0-12.2-1.9-16.6-5.6
	C74.8,70.5,72.6,65,72.6,57.8z M101.7,70.6c2.4,0,5.2-0.7,8.3-2.2c3.1-1.5,6-3.2,8.6-5.2V39.5c-10.1,0-17.7,1.6-22.8,4.7
	c-5.1,3-7.6,7-7.6,12s1.2,8.6,3.6,11C94.2,69.5,97.5,70.6,101.7,70.6z"/>
<path class="st0" d="M163.1,67.5c0.9,1.4,2.9,2.6,5.8,3.7c3,1.1,6.2,1.7,9.5,1.7c5.3,0,9.1-1,11.6-3c2.5-2,3.7-4.8,3.7-8.4
	c0-2.5-0.8-4.6-2.4-6.5c-1.6-1.8-3.8-3.4-6.6-4.8c-2.8-1.5-6.8-3.2-12-5.2c-7.1-2.7-12.3-5.8-15.6-9.5c-3.2-3.8-4.8-8.7-4.8-14.7
	c0-4,1.2-7.6,3.6-10.6c2.5-3,5.9-5.4,10.1-7c4.3-1.7,9.1-2.6,14.4-2.6c4.2,0,7.9,0.3,11.1,1c3.2,0.6,5.8,1.3,7.8,1.9
	s3.2,1.1,3.9,1.2v17.1h-8.4l-2.8-10.2c-0.6-1.1-2-2-4.4-2.8c-2.4-0.8-5.1-1.2-8-1.2c-4.2,0-7.5,0.9-10.1,2.8
	c-2.5,1.8-3.7,4.3-3.7,7.4c0,2.8,0.6,5,1.9,6.9c1.4,1.7,3.1,3.2,5.1,4.3c2,1.1,4.8,2.4,8.3,3.9l2.8,1.1c5.2,2,9.4,3.9,12.6,5.8
	c3.2,1.8,5.9,4.3,8,7.3c2.2,2.9,3.3,6.6,3.3,10.9c0,6.8-2.7,12.2-8,16.2c-5.3,4-12.5,6.1-21.7,6.1c-4.5,0-9.3-0.6-14.3-1.8
	c-4.9-1.3-8.9-2.6-12-3.9V56.7h9L163.1,67.5z"/>
<path class="st0" d="M220.1,57.8c0-8.6,4.3-15,13-19c8.7-4.1,19.7-6.3,32.9-6.6v-3.9c0-4.3-0.5-7.7-1.4-10.2
	c-0.9-2.5-2.5-4.3-4.8-5.4c-2.2-1.2-5.4-1.8-9.5-1.8c-4.7,0-8.9,0.7-12.7,2.1c-3.7,1.3-7.4,2.9-11.1,4.8l-3.5-7.2
	c1.2-1,3.4-2.3,6.6-4s7-3.1,11.2-4.4s8.5-1.9,12.7-1.9c6.6,0,11.7,0.9,15.5,2.8c3.9,1.7,6.6,4.6,8.3,8.5c1.7,3.9,2.5,9.2,2.5,15.8
	v44.2h8.2v6.1c-1.8,0.5-4.2,0.9-7.1,1.4c-2.8,0.5-5.2,0.7-7.3,0.7c-2.6,0-4.3-0.4-5.3-1.2c-0.9-0.7-1.4-2.4-1.4-5.1V69
	c-2.8,2.8-6.2,5.3-10.2,7.6c-4,2.3-8.5,3.4-13.6,3.4c-6.6,0-12.2-1.9-16.6-5.6C222.2,70.5,220.1,65,220.1,57.8z M249.1,70.6
	c2.4,0,5.2-0.7,8.3-2.2c3.1-1.5,6-3.2,8.6-5.2V39.5c-10.1,0-17.7,1.6-22.8,4.7c-5.1,3-7.6,7-7.6,12s1.2,8.6,3.6,11
	C241.6,69.5,245,70.6,249.1,70.6z"/>
<path class="st0" d="M439.1,132.7c0-8.7,4.3-15,13-19.1c8.7-4.2,19.7-6.4,32.9-6.6v-3.9c0-4.3-0.5-7.8-1.4-10.2
	c-0.9-2.5-2.5-4.3-4.8-5.4c-2.2-1.2-5.4-1.8-9.6-1.8c-4.7,0-8.9,0.7-12.7,2.1c-3.7,1.3-7.4,2.9-11.1,4.8l-3.5-7.2
	c1.2-1,3.4-2.4,6.6-4s7-3.1,11.2-4.4c4.2-1.3,8.5-1.9,12.7-1.9c6.6,0,11.7,0.9,15.5,2.8c3.9,1.8,6.6,4.6,8.3,8.6
	c1.7,4,2.5,9.3,2.5,15.9v44.4h8.2v6.1c-1.8,0.5-4.2,0.9-7.1,1.4c-2.8,0.5-5.2,0.7-7.3,0.7c-2.6,0-4.3-0.4-5.3-1.2
	c-0.9-0.7-1.4-2.4-1.4-5.1v-4.6c-2.8,2.8-6.2,5.3-10.2,7.6c-4,2.3-8.5,3.5-13.6,3.5c-6.6,0-12.2-1.9-16.6-5.7
	C441.3,145.5,439.1,139.9,439.1,132.7z M468.2,145.6c2.4,0,5.2-0.7,8.3-2.2c3.1-1.5,6-3.2,8.6-5.3v-23.8c-10.1,0-17.7,1.6-22.8,4.7
	c-5.1,3-7.6,7.1-7.6,12c0,5,1.2,8.7,3.6,11.1C460.7,144.4,464,145.6,468.2,145.6z"/>
<path class="st0" d="M354.9,114.9c0-8.3,1.7-15.5,5.1-21.6c3.4-6.1,7.9-10.7,13.4-13.8c5.6-3.2,11.6-4.8,18-4.8
	c11.6,0,20.3,3.7,26.2,11.1c5.9,7.4,8.9,17.1,8.9,29.1c0,8.4-1.7,15.6-5.1,21.7c-3.4,6.1-7.9,10.7-13.6,13.8
	c-5.5,3.1-11.5,4.7-17.9,4.7c-11.6,0-20.4-3.7-26.3-11.1C357.8,136.5,354.9,126.9,354.9,114.9z M390.8,147.1
	c6.4,0,11.3-2.6,14.7-7.9c3.4-5.3,5.1-13.1,5.1-23.4c0-10.2-1.6-18.4-4.7-24.4s-8.2-9-15.1-9c-6.4,0-11.3,2.6-14.8,7.9
	c-3.4,5.3-5.1,13.1-5.1,23.4c0,10.2,1.6,18.4,4.8,24.4C378.9,144.1,383.9,147.1,390.8,147.1z"/>
<path class="st0" d="M322.2,154.9c-5.3,0-9.2-1.2-11.8-3.6c-2.6-2.4-3.9-6.5-3.9-12.3V85.8h-10v-6.2c0.5-0.1,1.8-0.4,3.9-1
	c2.1-0.6,3.6-1.1,4.3-1.5c1.5-0.8,2.6-2.5,3.5-5c0.7-1.8,1.6-4.6,2.6-8.4c1-3.9,1.6-6.2,1.8-6.9h8.2l0.3,19.9h23.1v9.1h-23.1v42.5
	c0,5.3,0.1,9,0.4,11.1c0.4,2.1,1.1,3.5,2.1,4.2c1.1,0.6,3,1,5.5,1c2.5,0,5.2-0.3,8.2-1c3-0.6,5.4-1.3,7.1-2.1l2.1,6.2
	c-2.2,1.7-5.8,3.3-10.8,4.8C330.8,154.1,326.3,154.9,322.2,154.9z"/>
<path class="st0" d="M241.6,142.4c0.9,1.4,2.9,2.6,5.8,3.7c3,1.1,6.2,1.7,9.6,1.7c5.3,0,9.1-1,11.6-3c2.5-2,3.7-4.8,3.7-8.4
	c0-2.5-0.8-4.7-2.4-6.5c-1.6-1.8-3.8-3.5-6.6-4.8c-2.8-1.5-6.8-3.2-12-5.3c-7.1-2.7-12.3-5.9-15.6-9.5c-3.2-3.8-4.8-8.7-4.8-14.8
	c0-4.1,1.2-7.6,3.6-10.7c2.5-3,5.9-5.4,10.1-7.1c4.3-1.8,9.1-2.6,14.4-2.6c4.2,0,7.9,0.3,11.1,1c3.2,0.6,5.8,1.3,7.8,1.9
	c1.9,0.6,3.2,1.1,3.9,1.2v17.2h-8.4l-2.8-10.2c-0.6-1.1-2-2-4.4-2.8c-2.4-0.8-5.1-1.2-8-1.2c-4.2,0-7.5,0.9-10.1,2.8
	c-2.5,1.8-3.7,4.3-3.7,7.5c0,2.8,0.6,5.1,1.9,6.9c1.4,1.8,3.1,3.2,5.1,4.3c2,1.1,4.8,2.4,8.3,3.9l2.8,1.1c5.2,2,9.4,4,12.6,5.8
	c3.2,1.8,5.9,4.3,8,7.3c2.2,3,3.3,6.6,3.3,10.9c0,6.8-2.7,12.3-8,16.3c-5.3,4.1-12.5,6.1-21.7,6.1c-4.5,0-9.3-0.6-14.3-1.8
	c-4.9-1.3-8.9-2.6-12-3.9v-17.7h9L241.6,142.4z"/>
<path class="st0" d="M144.5,114.9c0-8.3,1.7-15.5,5.1-21.6c3.4-6.1,7.9-10.7,13.4-13.8c5.6-3.2,11.6-4.8,18-4.8
	c11.6,0,20.3,3.7,26.2,11.1c5.9,7.4,8.9,17.1,8.9,29.1c0,8.4-1.7,15.6-5.1,21.7c-3.4,6.1-7.9,10.7-13.6,13.8
	c-5.5,3.1-11.5,4.7-17.9,4.7c-11.6,0-20.4-3.7-26.3-11.1C147.4,136.5,144.5,126.9,144.5,114.9z M180.3,147.1
	c6.4,0,11.3-2.6,14.7-7.9c3.4-5.3,5.1-13.1,5.1-23.4c0-10.2-1.6-18.4-4.7-24.4s-8.2-9-15.1-9c-6.4,0-11.3,2.6-14.8,7.9
	c-3.4,5.3-5.1,13.1-5.1,23.4c0,10.2,1.6,18.4,4.8,24.4C168.5,144.1,173.5,147.1,180.3,147.1z"/>
<path class="st0" d="M87.5,142.4c0.9,1.4,2.9,2.6,5.8,3.7c3,1.1,6.2,1.7,9.5,1.7c5.3,0,9.1-1,11.6-3s3.7-4.8,3.7-8.4
	c0-2.5-0.8-4.7-2.4-6.5c-1.6-1.8-3.8-3.5-6.6-4.8c-2.8-1.5-6.8-3.2-12-5.3c-7.1-2.7-12.3-5.9-15.6-9.5c-3.2-3.8-4.8-8.7-4.8-14.8
	c0-4.1,1.2-7.6,3.6-10.7c2.5-3,5.9-5.4,10.1-7.1c4.3-1.8,9.1-2.6,14.4-2.6c4.2,0,7.9,0.3,11.1,1c3.2,0.6,5.8,1.3,7.8,1.9
	c1.9,0.6,3.2,1.1,3.9,1.2v17.2H119l-2.8-10.2c-0.6-1.1-2-2-4.4-2.8c-2.4-0.8-5.1-1.2-8-1.2c-4.2,0-7.5,0.9-10.1,2.8
	c-2.5,1.8-3.7,4.3-3.7,7.5c0,2.8,0.6,5.1,1.9,6.9c1.4,1.8,3.1,3.2,5.1,4.3c2,1.1,4.8,2.4,8.3,3.9l2.8,1.1c5.2,2,9.4,4,12.6,5.8
	c3.2,1.8,5.9,4.3,8,7.3c2.2,3,3.3,6.6,3.3,10.9c0,6.8-2.7,12.3-8,16.3c-5.3,4.1-12.5,6.1-21.7,6.1c-4.5,0-9.3-0.6-14.3-1.8
	c-4.9-1.3-8.9-2.6-12-3.9v-17.7h9L87.5,142.4z"/>
<path class="st0" d="M109,74.9l14.9-9.9l2.1,10.6l-6.4,6.4L109,74.9z"/>
<path class="st0" d="M256,73.3l14.9-9.3l2.1,10l-6.4,6L256,73.3z"/>
</svg>
